<svg width="160" height="160" viewBox="0 0 160 160" fill="none" xmlns="http://www.w3.org/2000/svg">
<path d="M160 80C160 124.183 124.183 160 80 160C35.8172 160 0 124.183 0 80C0 35.8172 35.8172 0 80 0C124.183 0 160 35.8172 160 80Z" fill="#09090B"/>
<path fill-rule="evenodd" clip-rule="evenodd" d="M106 37.0003C90.5364 52.4643 65.4643 52.4643 50.0002 37.0003L50.0001 37.0002L38 49.0002L38 49.0003C60.0915 71.0917 95.9088 71.0917 118 49.0002C118 49.0002 118 49.0002 118 49.0002L106 37.0003Z" fill="url(#paint0_linear_1070_78)"/>
<path fill-rule="evenodd" clip-rule="evenodd" d="M49.9996 122.213C65.4637 106.749 90.5357 106.749 106 122.213L106 122.214L118 110.213L118 110.213C95.9085 88.1219 60.0912 88.1219 37.9997 110.213C37.9997 110.213 37.9997 110.213 37.9997 110.213L49.9996 122.213Z" fill="url(#paint1_linear_1070_78)"/>
<path d="M117.903 49.0001L50.0208 121.832L38.707 110.519L105.882 36.9792L117.903 49.0001Z" fill="white"/>
<defs>
<linearGradient id="paint0_linear_1070_78" x1="43.6569" y1="44.3557" x2="113.661" y2="45.7699" gradientUnits="userSpaceOnUse">
<stop stop-color="white"/>
<stop offset="1"/>
</linearGradient>
<linearGradient id="paint1_linear_1070_78" x1="113.661" y1="114.359" x2="43.6569" y2="115.066" gradientUnits="userSpaceOnUse">
<stop stop-color="white"/>
<stop offset="1"/>
</linearGradient>
</defs>
</svg>
