<svg width="160" height="160" viewBox="0 0 160 160" fill="none" xmlns="http://www.w3.org/2000/svg">
<path fill-rule="evenodd" clip-rule="evenodd" d="M80 160C124.183 160 160 124.183 160 80C160 35.8172 124.183 0 80 0C35.8172 0 0 35.8172 0 80C0 124.183 35.8172 160 80 160ZM92.643 60.675L76.6653 48H33C30.7909 48 29 49.7909 29 52V56.675C29 58.8842 30.7909 60.675 33 60.675H58.2329L29 99.325V108C29 110.209 30.7909 112 33 112H88.643C90.8521 112 92.643 110.209 92.643 108V81.6513L124.591 106.883C127.214 108.954 131.07 107.086 131.07 103.744V52C131.07 49.7909 129.279 48 127.07 48H119.092C116.883 48 115.092 49.7909 115.092 52V78.3487L92.643 60.675ZM76.6653 95.325V60.675L47.4324 99.325H72.6653C74.8744 99.325 76.6653 97.5341 76.6653 95.325Z" fill="#09090B"/>
</svg>
